<?xml version="1.0" encoding="utf-8"?>
<!-- Generator: Adobe Illustrator 25.0.0, SVG Export Plug-In . SVG Version: 6.00 Build 0)  -->
<svg version="1.1" id="Capa_1" xmlns="http://www.w3.org/2000/svg" xmlns:xlink="http://www.w3.org/1999/xlink" x="0px" y="0px"
	 viewBox="0 0 55.4 56.1" style="enable-background:new 0 0 55.4 56.1;" xml:space="preserve">
<style type="text/css">
	.st0{fill:#8EE2CF;}
	.st1{fill:#E1B89A;}
	.st2{fill:#4E5660;}
	.st3{fill:#383C43;}
	.st4{fill:#89D47F;}
	.st5{fill:#5EC783;}
	.st6{fill:#D2996F;}
	.st7{fill:#FFFFFF;}
</style>
<path class="st0" d="M29.9,3.3c-2.3,2.3-3.1,5.6-3.4,7.8c-0.2,1.5,1,2.7,2.5,2.5c2.3-0.3,5.5-1.1,7.8-3.4c2.3-2.3,3.1-5.6,3.4-7.8
	c0.2-1.5-1-2.7-2.5-2.5C35.5,0.1,32.2,1,29.9,3.3z"/>
<path class="st0" d="M8.7-1"/>
<path class="st1" d="M26.4,12.1c-1,0-1.8-0.8-1.8-1.8c0-2.6-2.1-4.6-4.6-4.6c-1,0-1.8-0.8-1.8-1.8S19,2.1,20,2.1
	c4.5,0,8.2,3.7,8.2,8.2C28.2,11.3,27.4,12.1,26.4,12.1z"/>
<path class="st1" d="M8.7-1"/>
<path class="st2" d="M26.4,56.1c-9.3,0-16.8-7.6-16.8-16.8c0-5,1.5-7.7,2.8-10c1.2-2.1,2.1-3.7,2.1-7.4c0-6.6,5.4-11.9,11.9-11.9
	c6.6,0,11.9,5.4,11.9,11.9c0,3.7,0.9,5.4,2.1,7.4c1.3,2.3,2.8,4.9,2.8,10C43.2,48.6,35.7,56.1,26.4,56.1L26.4,56.1z"/>
<path class="st3" d="M37,52.3c-18.3-2.6-21-29.9-14.7-41.7c-4.6,1.7-7.9,6.1-7.9,11.2c0,3.7-0.9,5.3-2.1,7.4
	c-1.3,2.3-2.8,4.9-2.8,10c0,9.3,7.6,16.8,16.8,16.8C30.4,56.1,34.1,54.7,37,52.3L37,52.3z"/>
<path class="st4" d="M12.5,39.3c0-8.6,4.9-8.5,4.9-17.4c0-5,4-9,9-9c5,0,9,4,9,9c0,8.9,4.9,8.8,4.9,17.4c0,7.7-6.2,13.9-13.9,13.9
	C18.7,53.2,12.5,47,12.5,39.3z"/>
<path class="st5" d="M20.6,15c-2,1.6-3.2,4.1-3.2,6.9c0,8.9-4.9,8.8-4.9,17.4c0,7.7,6.2,13.9,13.9,13.9c2.5,0,4.8-0.7,6.9-1.8
	C20.2,46.5,17.1,27,20.6,15L20.6,15z"/>
<path class="st1" d="M31.2,34.5c-2.7-2.7-7-2.7-9.6,0c-2.7,2.7-2.7,7,0,9.6c2.7,2.7,7,2.7,9.6,0C33.9,41.4,33.9,37.1,31.2,34.5z"/>
<path class="st6" d="M32,43.2c-7.4,1.2-10.8-6.7-7.1-10.5c-3,0.7-5.3,3.4-5.3,6.6c0,3.8,3,6.8,6.8,6.8C28.7,46.1,30.7,44.9,32,43.2z
	"/>
<path class="st7" d="M22.3,30.2c0-1-1.1-1.9-2.4-1.9c-1.3,0-2.4,0.8-2.4,1.9c0,1,1.1,1.9,2.4,1.9C21.3,32.1,22.3,31.2,22.3,30.2z
	 M35.2,30.2c0-1-1.1-1.9-2.4-1.9c-1.3,0-2.4,0.8-2.4,1.9c0,1,1.1,1.9,2.4,1.9C34.2,32.1,35.2,31.2,35.2,30.2z M8.7-1"/>
</svg>
